<svg width="2109" height="2399" viewBox="0 0 2109 2399" fill="none" xmlns="http://www.w3.org/2000/svg">
<path d="M40 42C40 40.8954 40.8954 40 42 40H2067C2068.1 40 2069 40.8954 2069 42V2357C2069 2358.1 2068.1 2359 2067 2359H41.9999C40.8954 2359 40 2358.1 40 2357V42Z" fill="#444444"/>
<path d="M42 41H2067V39H42V41ZM2068 42V2357H2070V42H2068ZM2067 2358H41.9999V2360H2067V2358ZM41 2357V42H39V2357H41ZM41.9999 2358C41.4477 2358 41 2357.55 41 2357H39C39 2358.66 40.3431 2360 41.9999 2360V2358ZM2068 2357C2068 2357.55 2067.55 2358 2067 2358V2360C2068.66 2360 2070 2358.66 2070 2357H2068ZM2067 41C2067.55 41 2068 41.4477 2068 42H2070C2070 40.3432 2068.66 39 2067 39V41ZM42 39C40.3432 39 39 40.3431 39 42H41C41 41.4477 41.4477 41 42 41V39Z" fill="white" fill-opacity="0.1"/>
<rect width="1920" height="1080" transform="translate(109 121)" fill="white"/>
<path d="M380.301 546.106C368.819 555.96 362.867 567.179 362.138 579.043C361.41 590.907 366.012 603.753 372.508 616.377C394.545 659.159 422.748 703.007 446.042 744.608C456.35 763.025 458.759 782.862 440.466 792.355C437.328 793.982 427.472 796 424.282 796H329.264C336.819 788.057 343.247 781.159 345.533 769.916C348.977 752.988 341.92 736.711 331.619 718.133C310.127 679.356 284.87 642.437 263.915 603.346C255.739 588.09 243.72 567.578 260.31 552.645C266.024 547.503 274.024 546.122 281.418 546.122H351.546C361.111 546.122 370.683 546.122 380.248 546.122C380.255 546.122 380.294 546.122 380.301 546.122V546.106Z" fill="#F16400"/>
<path d="M353.234 526.498C380.434 526.498 402.484 504.449 402.484 477.249C402.484 450.05 380.434 428 353.234 428C326.035 428 303.985 450.05 303.985 477.249C303.985 504.449 326.035 526.498 353.234 526.498Z" fill="#F16400"/>
<path d="M454.469 584.432C454.469 593.067 452.597 597.987 446.107 611.289C437.63 628.659 423.745 654.265 420.822 659.653C420.822 659.653 405.287 632.873 393.028 611.627C386.232 599.852 382.419 591.555 382.419 584.432C382.419 564.529 398.544 548.387 418.444 548.387C438.343 548.387 454.469 564.521 454.469 584.432Z" fill="#F16400"/>
<path d="M252.912 759.955C252.912 751.32 254.784 746.4 261.274 733.098C269.751 715.728 283.636 690.122 286.559 684.733C286.559 684.733 302.093 711.514 314.352 732.76C321.149 744.535 324.962 752.832 324.962 759.955C324.962 779.858 308.836 796 288.937 796C269.037 796 252.912 779.866 252.912 759.955Z" fill="#F16400"/>
<path d="M576.563 800C570.377 800 565.736 799.762 562.643 799.287C559.549 798.812 556.575 798.217 553.719 797.504C551.102 796.791 547.532 796.197 543.011 795.722C538.49 795.246 531.589 795.009 522.309 795.009L513.742 727.982H518.382C522.19 750.324 529.329 767.2 539.799 778.608C550.269 789.78 561.691 795.365 574.065 795.365C586.201 795.365 595.362 792.869 601.549 787.878C607.974 782.887 611.187 776.113 611.187 767.556C611.187 762.089 609.759 757.336 606.903 753.295C604.286 749.017 599.646 744.738 592.983 740.46C586.32 735.944 577.277 730.596 565.855 724.416L555.504 718.712C542.416 711.344 532.66 702.787 526.235 693.042C520.048 683.059 516.955 672.364 516.955 660.955C516.955 644.792 522.785 632.076 534.445 622.807C546.343 613.537 562.167 608.902 581.918 608.902C586.915 608.902 590.96 609.14 594.053 609.615C597.147 610.09 600.121 610.685 602.977 611.398C605.832 612.111 609.402 612.705 613.685 613.18C617.968 613.656 623.679 613.893 630.818 613.893L635.815 671.294H631.532C630.104 660.123 626.892 650.259 621.895 641.702C617.136 632.908 611.425 626.134 604.762 621.38C598.099 616.389 591.317 613.893 584.416 613.893C575.374 613.893 568.116 616.27 562.643 621.024C557.408 625.778 554.79 632.433 554.79 640.989C554.79 647.407 556.813 653.349 560.858 658.816C565.141 664.045 573.232 669.749 585.13 675.929L595.838 681.277C612.495 689.833 624.631 698.747 632.246 708.016C639.861 717.286 643.668 729.17 643.668 743.669C643.668 780.748 621.3 799.525 576.563 800Z" fill="#F16400"/>
<path d="M638.802 795.009V791.443H639.159C647.725 791.443 654.626 788.829 659.861 783.6C665.096 778.371 667.714 771.478 667.714 762.921V645.981C667.714 636.949 665.81 629.937 662.003 624.946C658.434 619.954 650.7 617.459 638.802 617.459V613.893H675.21C687.346 613.893 696.626 612.586 703.051 609.972C709 607.357 713.164 604.148 715.544 600.345H719.113V762.921C719.113 771.478 721.731 778.371 726.966 783.6C732.201 788.829 739.102 791.443 747.668 791.443H748.025V795.009H638.802ZM693.057 577.884C684.49 577.884 677.351 575.151 671.64 569.684C666.167 563.98 663.431 556.849 663.431 548.293C663.431 539.736 666.167 532.724 671.64 527.258C677.351 521.553 684.49 518.701 693.057 518.701C701.385 518.701 708.286 521.553 713.759 527.258C719.47 532.962 722.326 539.974 722.326 548.293C722.326 556.612 719.47 563.623 713.759 569.328C708.286 575.032 701.385 577.884 693.057 577.884Z" fill="#F16400"/>
<path d="M790.813 800C776.298 800 764.638 796.078 755.833 788.235C747.029 780.391 742.627 770.052 742.627 757.217C742.627 751.75 743.578 746.64 745.482 741.886C747.386 736.895 750.955 732.022 756.19 727.269C761.663 722.515 769.159 717.643 778.677 712.651C788.196 707.422 800.808 701.955 816.513 696.251L849.708 684.129V657.39C849.708 643.842 847.567 633.146 843.283 625.302C839 617.221 833.051 613.18 825.436 613.18C816.394 613.418 808.66 619.36 802.235 631.007C796.048 642.653 791.884 658.816 789.743 679.494L751.193 657.39C755.238 647.645 761.425 639.088 769.754 631.72C778.083 624.352 787.601 618.647 798.309 614.606C809.255 610.566 820.677 608.546 832.575 608.546C852.802 608.546 869.221 614.25 881.833 625.659C894.683 636.83 901.108 652.161 901.108 671.651V757.573C901.108 771.359 905.748 778.252 915.028 778.252C920.501 778.252 925.855 775.281 931.09 769.339L933.946 771.834C927.759 780.153 920.263 786.927 911.459 792.156C902.654 797.385 894.088 800 885.759 800C876.717 800 868.864 796.91 862.201 790.73C855.776 784.551 851.731 776.35 850.065 766.13C838.405 778.014 828.173 786.69 819.368 792.156C810.802 797.385 801.284 800 790.813 800ZM817.584 777.895C822.819 777.895 827.816 776.588 832.575 773.974C837.572 771.359 843.164 767.081 849.351 761.139L849.708 688.764L835.431 694.112C823.295 698.628 814.014 703.263 807.589 708.016C801.165 712.532 796.643 717.642 794.026 723.347C791.646 729.051 790.456 735.588 790.456 742.956C790.456 753.176 792.955 761.614 797.952 768.269C803.187 774.687 809.731 777.895 817.584 777.895Z" fill="#F16400"/>
<path d="M935.644 794.942V791.377C943.973 791.377 950.16 789.713 954.205 786.386C958.488 782.821 961.225 778.305 962.415 772.838C963.842 767.371 964.556 761.429 964.556 755.012V559.635C964.556 551.079 961.82 544.186 956.347 538.957C951.112 533.728 944.211 531.113 935.644 531.113V527.548H972.052C984.188 527.548 993.468 526.241 999.893 523.626C1005.84 521.012 1010.01 517.803 1012.39 514H1015.96V649.48C1022.38 636.883 1031.78 627.019 1044.15 619.888C1056.53 612.52 1069.73 608.836 1083.77 608.836C1094.96 608.836 1104.48 611.45 1112.33 616.679C1120.18 621.671 1126.13 628.445 1130.18 637.001C1134.46 645.558 1136.6 655.184 1136.6 665.88V762.855C1136.6 771.649 1139.22 778.661 1144.45 783.89C1149.93 788.882 1156.95 791.377 1165.51 791.377V794.942H1056.65V791.377C1065.21 791.377 1072.11 788.882 1077.35 783.89C1082.82 778.661 1085.56 771.649 1085.56 762.855V662.315C1085.56 657.086 1084.84 651.5 1083.42 645.558C1081.99 639.378 1079.37 634.149 1075.56 629.871C1071.99 625.355 1066.88 623.097 1060.22 623.097C1054.03 623.097 1048.08 624.998 1042.37 628.801C1036.9 632.367 1031.9 636.883 1027.38 642.349C1022.86 647.816 1019.05 653.283 1015.96 658.75V755.012C1015.96 761.429 1016.55 767.371 1017.74 772.838C1019.17 778.305 1021.9 782.821 1025.95 786.386C1030.23 789.713 1036.54 791.377 1044.87 791.377V794.942H935.644Z" fill="#F2B272"/>
<path d="M1240.9 799.221C1224.48 799.221 1209.85 795.18 1197 787.099C1184.39 779.018 1174.51 767.847 1167.37 753.585C1160.23 739.087 1156.66 722.568 1156.66 704.028C1156.66 685.014 1160.59 668.376 1168.44 654.115C1176.3 639.854 1187 628.801 1200.57 620.958C1214.37 612.877 1229.96 608.836 1247.33 608.836C1261.84 608.836 1274.69 611.688 1285.88 617.393C1297.3 623.097 1306.34 631.178 1313 641.636C1319.9 651.857 1323.83 663.741 1324.78 677.289L1325.14 682.637H1205.21V684.419C1205.21 709.614 1210.8 729.817 1221.98 745.029C1233.17 760.003 1248.16 767.49 1266.96 767.49C1278.38 767.49 1289.21 764.757 1299.44 759.29C1309.91 753.585 1318.36 745.98 1324.78 736.472L1328 737.542C1323.95 749.664 1317.64 760.359 1309.08 769.629C1300.51 778.899 1290.4 786.148 1278.74 791.377C1267.08 796.606 1254.47 799.221 1240.9 799.221ZM1205.57 677.289H1278.02C1278.02 658.512 1274.93 643.3 1268.74 631.654C1262.79 620.007 1254.35 614.184 1243.4 614.184C1232.93 614.184 1224.25 619.888 1217.34 631.297C1210.44 642.706 1206.52 658.037 1205.57 677.289Z" fill="#F2B272"/>
<path d="M1376.08 799.934C1361.57 799.934 1349.91 796.012 1341.1 788.168C1332.3 780.325 1327.9 769.986 1327.9 757.151C1327.9 751.684 1328.85 746.574 1330.75 741.82C1332.65 736.829 1336.22 731.956 1341.46 727.203C1346.93 722.449 1354.43 717.576 1363.95 712.585C1373.46 707.356 1386.08 701.889 1401.78 696.185L1434.98 684.063V657.323C1434.98 643.775 1432.84 633.08 1428.55 625.236C1424.27 617.155 1418.32 613.114 1410.7 613.114C1401.66 613.352 1393.93 619.294 1387.5 630.941C1381.32 642.587 1377.15 658.75 1375.01 679.428L1336.46 657.323C1340.51 647.578 1346.69 639.022 1355.02 631.654C1363.35 624.285 1372.87 618.581 1383.58 614.54C1394.52 610.5 1405.95 608.479 1417.84 608.479C1438.07 608.479 1454.49 614.184 1467.1 625.593C1479.95 636.764 1486.38 652.094 1486.38 671.584V757.507C1486.38 771.293 1491.02 778.186 1500.3 778.186C1505.77 778.186 1511.12 775.215 1516.36 769.273L1519.21 771.768C1513.03 780.087 1505.53 786.861 1496.73 792.09C1487.92 797.319 1479.36 799.934 1471.03 799.934C1461.99 799.934 1454.13 796.844 1447.47 790.664C1441.04 784.484 1437 776.284 1435.33 766.064C1423.67 777.948 1413.44 786.624 1404.64 792.09C1396.07 797.319 1386.55 799.934 1376.08 799.934ZM1402.85 777.829C1408.09 777.829 1413.08 776.522 1417.84 773.907C1422.84 771.293 1428.43 767.015 1434.62 761.073L1434.98 688.698L1420.7 694.046C1408.56 698.562 1399.28 703.196 1392.86 707.95C1386.43 712.466 1381.91 717.576 1379.29 723.281C1376.91 728.985 1375.72 735.521 1375.72 742.89C1375.72 753.11 1378.22 761.548 1383.22 768.203C1388.46 774.621 1395 777.829 1402.85 777.829Z" fill="#F2B272"/>
<path d="M1502.72 794.942V791.377C1511.28 791.377 1518.18 788.882 1523.42 783.89C1528.89 778.661 1531.63 771.649 1531.63 762.855V559.635C1531.63 551.079 1528.89 544.186 1523.42 538.957C1518.18 533.728 1511.28 531.113 1502.72 531.113V527.548H1539.12C1551.26 527.548 1560.54 526.241 1566.97 523.626C1572.92 521.012 1577.08 517.803 1579.46 514H1583.03V762.855C1583.03 771.649 1585.65 778.661 1590.88 783.89C1596.35 788.882 1603.37 791.377 1611.94 791.377V794.942H1502.72Z" fill="#F2B272"/>
<path d="M1663.58 799.934C1651.21 799.934 1641.09 796.012 1633.24 788.168C1625.39 780.325 1621.46 770.104 1621.46 757.507V620.245H1591.12V615.61C1607.54 614.421 1622.17 609.192 1635.02 599.923C1648.11 590.653 1658.82 578.175 1667.15 562.488H1672.86V613.827H1720.33L1716.76 620.245H1672.86V749.664C1672.86 768.678 1679.28 778.186 1692.13 778.186C1696.42 778.186 1701.3 776.879 1706.77 774.264C1712.48 771.649 1717.83 768.203 1722.83 763.925V767.49C1714.98 777.473 1705.7 785.435 1694.99 791.377C1684.28 797.082 1673.81 799.934 1663.58 799.934Z" fill="#F2B272"/>
<path d="M1707.87 794.942V791.377C1716.2 791.377 1722.39 789.713 1726.43 786.386C1730.72 782.821 1733.45 778.305 1734.64 772.838C1736.07 767.371 1736.79 761.429 1736.79 755.012V559.635C1736.79 551.079 1734.05 544.186 1728.58 538.957C1723.34 533.728 1716.44 531.113 1707.87 531.113V527.548H1744.28C1756.42 527.548 1765.7 526.241 1772.12 523.626C1778.07 521.012 1782.24 517.803 1784.62 514H1788.18V649.48C1794.61 636.883 1804.01 627.019 1816.38 619.888C1828.76 612.52 1841.96 608.836 1856 608.836C1867.19 608.836 1876.71 611.45 1884.56 616.679C1892.41 621.671 1898.36 628.445 1902.41 637.001C1906.69 645.558 1908.83 655.184 1908.83 665.88V762.855C1908.83 771.649 1911.45 778.661 1916.68 783.89C1922.16 788.882 1929.18 791.377 1937.74 791.377V794.942H1828.88V791.377C1837.44 791.377 1844.34 788.882 1849.58 783.89C1855.05 778.661 1857.79 771.649 1857.79 762.855V662.315C1857.79 657.086 1857.07 651.5 1855.65 645.558C1854.22 639.378 1851.6 634.149 1847.79 629.871C1844.22 625.355 1839.11 623.097 1832.45 623.097C1826.26 623.097 1820.31 624.998 1814.6 628.801C1809.13 632.367 1804.13 636.883 1799.61 642.349C1795.09 647.816 1791.28 653.283 1788.18 658.75V755.012C1788.18 761.429 1788.78 767.371 1789.97 772.838C1791.4 778.305 1794.13 782.821 1798.18 786.386C1802.46 789.713 1808.77 791.377 1817.1 791.377V794.942H1707.87Z" fill="#F2B272"/>
<path d="M171.275 212.826C169.977 212.826 168.817 212.747 167.794 212.59C166.771 212.472 165.768 212.334 164.785 212.177C163.802 212.059 162.72 212 161.54 212L159.652 198.784H160.242C160.557 201.459 161.186 203.779 162.13 205.746C163.113 207.713 164.293 209.247 165.67 210.348C167.086 211.41 168.6 211.941 170.213 211.941C172.022 211.941 173.576 211.331 174.874 210.112C176.211 208.893 177.254 207.241 178.001 205.156C178.748 203.032 179.122 200.652 179.122 198.017C179.122 193.966 178.316 190.721 176.703 188.282C175.13 185.804 173.025 184.565 170.39 184.565C168.738 184.565 167.086 185.057 165.434 186.04C163.782 187.023 162.445 188.341 161.422 189.993H160.95L163.841 166.452C167.656 169.323 171.609 170.759 175.7 170.759C177.627 170.759 179.476 170.405 181.246 169.697C183.016 168.989 184.629 167.927 186.084 166.511V167.16C183.842 170.582 181.226 173.217 178.237 175.066C175.287 176.875 172.258 177.78 169.151 177.78C167.184 177.78 165.257 177.387 163.369 176.6L162.307 185.155C163.015 185.155 163.959 185.037 165.139 184.801C166.319 184.526 167.578 184.27 168.915 184.034C170.292 183.759 171.57 183.621 172.75 183.621C175.818 183.621 178.473 184.231 180.715 185.45C182.957 186.63 184.688 188.282 185.907 190.406C187.166 192.53 187.795 195.008 187.795 197.84C187.795 200.79 187.107 203.406 185.73 205.687C184.393 207.929 182.485 209.679 180.007 210.938C177.568 212.197 174.658 212.826 171.275 212.826ZM193.508 212.826C192.132 212.826 190.952 212.334 189.968 211.351C188.985 210.368 188.493 209.188 188.493 207.811C188.493 206.356 189.005 205.156 190.027 204.212C191.05 203.268 192.21 202.796 193.508 202.796C194.806 202.796 195.967 203.268 196.989 204.212C198.012 205.156 198.523 206.356 198.523 207.811C198.523 209.188 198.032 210.368 197.048 211.351C196.065 212.334 194.885 212.826 193.508 212.826Z" fill="#66605C"/>
<rect width="1920" height="1080" transform="translate(109 1228)" fill="white"/>
<path d="M782.084 1632.46C765.61 1646.59 757.07 1662.69 756.025 1679.71C754.979 1696.74 761.582 1715.17 770.903 1733.28C802.52 1794.66 842.986 1857.58 876.408 1917.26C891.198 1943.69 894.654 1972.15 868.407 1985.77C863.906 1988.1 849.765 1991 845.187 1991H708.858C719.697 1979.6 728.92 1969.71 732.199 1953.58C737.14 1929.29 727.016 1905.93 712.236 1879.28C681.4 1823.64 645.161 1770.67 615.096 1714.58C603.364 1692.69 586.12 1663.26 609.923 1641.84C618.122 1634.46 629.6 1632.48 640.209 1632.48H740.827C754.55 1632.48 768.284 1632.48 782.007 1632.48C782.018 1632.48 782.073 1632.48 782.084 1632.48V1632.46Z" fill="#F16400"/>
<path d="M743.249 1604.32C782.274 1604.32 813.91 1572.69 813.91 1533.66C813.91 1494.64 782.274 1463 743.249 1463C704.223 1463 672.587 1494.64 672.587 1533.66C672.587 1572.69 704.223 1604.32 743.249 1604.32Z" fill="#F16400"/>
<path d="M888.499 1687.45C888.499 1699.83 885.813 1706.89 876.501 1725.98C864.339 1750.9 844.416 1787.64 840.223 1795.37C840.223 1795.37 817.934 1756.95 800.345 1726.46C790.593 1709.57 785.123 1697.67 785.123 1687.45C785.123 1658.89 808.259 1635.73 836.811 1635.73C865.362 1635.73 888.499 1658.88 888.499 1687.45Z" fill="#F16400"/>
<path d="M599.309 1939.28C599.309 1926.89 601.994 1919.83 611.306 1900.75C623.468 1875.83 643.391 1839.09 647.584 1831.36C647.584 1831.36 669.873 1869.78 687.462 1900.26C697.214 1917.16 702.684 1929.06 702.684 1939.28C702.684 1967.84 679.548 1991 650.996 1991C622.445 1991 599.309 1967.85 599.309 1939.28Z" fill="#F16400"/>
<path d="M1040.86 1848.82C1033.65 1848.82 1028.25 1848.55 1024.64 1847.99C1021.04 1847.44 1017.57 1846.74 1014.24 1845.91C1011.19 1845.08 1007.03 1844.39 1001.76 1843.83C996.491 1843.28 988.448 1843 977.632 1843L967.648 1764.79H973.056C977.494 1790.86 985.814 1810.55 998.016 1823.86C1010.22 1836.9 1023.53 1843.42 1037.95 1843.42C1052.1 1843.42 1062.77 1840.5 1069.98 1834.68C1077.47 1828.86 1081.22 1820.95 1081.22 1810.97C1081.22 1804.59 1079.55 1799.04 1076.22 1794.33C1073.17 1789.34 1067.77 1784.34 1060 1779.35C1052.24 1774.08 1041.7 1767.84 1028.38 1760.63L1016.32 1753.98C1001.07 1745.38 989.696 1735.39 982.208 1724.02C974.998 1712.38 971.392 1699.9 971.392 1686.58C971.392 1667.73 978.187 1652.89 991.776 1642.07C1005.64 1631.26 1024.09 1625.85 1047.1 1625.85C1052.93 1625.85 1057.64 1626.13 1061.25 1626.68C1064.85 1627.23 1068.32 1627.93 1071.65 1628.76C1074.98 1629.59 1079.14 1630.29 1084.13 1630.84C1089.12 1631.39 1095.78 1631.67 1104.1 1631.67L1109.92 1698.65H1104.93C1103.26 1685.61 1099.52 1674.1 1093.7 1664.12C1088.15 1653.86 1081.49 1645.95 1073.73 1640.41C1065.96 1634.58 1058.06 1631.67 1050.02 1631.67C1039.48 1631.67 1031.02 1634.45 1024.64 1639.99C1018.54 1645.54 1015.49 1653.3 1015.49 1663.29C1015.49 1670.78 1017.85 1677.71 1022.56 1684.09C1027.55 1690.19 1036.98 1696.85 1050.85 1704.06L1063.33 1710.3C1082.74 1720.28 1096.89 1730.68 1105.76 1741.5C1114.64 1752.31 1119.07 1766.18 1119.07 1783.1C1119.07 1826.36 1093 1848.27 1040.86 1848.82Z" fill="#F16400"/>
<path d="M1113.4 1843V1838.84H1113.82C1123.8 1838.84 1131.84 1835.79 1137.95 1829.69C1144.05 1823.59 1147.1 1815.54 1147.1 1805.56V1669.11C1147.1 1658.57 1144.88 1650.39 1140.44 1644.57C1136.28 1638.74 1127.27 1635.83 1113.4 1635.83V1631.67H1155.83C1169.98 1631.67 1180.79 1630.15 1188.28 1627.1C1195.21 1624.05 1200.07 1620.3 1202.84 1615.86H1207V1805.56C1207 1815.54 1210.05 1823.59 1216.15 1829.69C1222.25 1835.79 1230.3 1838.84 1240.28 1838.84H1240.7V1843H1113.4ZM1176.63 1589.66C1166.65 1589.66 1158.33 1586.47 1151.67 1580.09C1145.29 1573.43 1142.11 1565.11 1142.11 1555.13C1142.11 1545.14 1145.29 1536.96 1151.67 1530.58C1158.33 1523.93 1166.65 1520.6 1176.63 1520.6C1186.34 1520.6 1194.38 1523.93 1200.76 1530.58C1207.42 1537.24 1210.75 1545.42 1210.75 1555.13C1210.75 1564.83 1207.42 1573.02 1200.76 1579.67C1194.38 1586.33 1186.34 1589.66 1176.63 1589.66Z" fill="#F16400"/>
<path d="M1290.57 1848.82C1273.65 1848.82 1260.06 1844.25 1249.8 1835.1C1239.54 1825.94 1234.41 1813.88 1234.41 1798.9C1234.41 1792.53 1235.51 1786.56 1237.73 1781.02C1239.95 1775.19 1244.11 1769.51 1250.21 1763.96C1256.59 1758.41 1265.33 1752.73 1276.42 1746.9C1287.51 1740.8 1302.21 1734.42 1320.52 1727.77L1359.21 1713.62V1682.42C1359.21 1666.62 1356.71 1654.14 1351.72 1644.98C1346.73 1635.55 1339.79 1630.84 1330.92 1630.84C1320.38 1631.12 1311.37 1638.05 1303.88 1651.64C1296.67 1665.23 1291.81 1684.09 1289.32 1708.22L1244.39 1682.42C1249.1 1671.05 1256.31 1661.07 1266.02 1652.47C1275.73 1643.87 1286.82 1637.22 1299.3 1632.5C1312.06 1627.79 1325.37 1625.43 1339.24 1625.43C1362.81 1625.43 1381.95 1632.09 1396.65 1645.4C1411.62 1658.43 1419.11 1676.32 1419.11 1699.06V1799.32C1419.11 1815.41 1424.52 1823.45 1435.33 1823.45C1441.71 1823.45 1447.95 1819.98 1454.05 1813.05L1457.38 1815.96C1450.17 1825.67 1441.43 1833.57 1431.17 1839.67C1420.91 1845.77 1410.93 1848.82 1401.22 1848.82C1390.68 1848.82 1381.53 1845.22 1373.77 1838.01C1366.28 1830.8 1361.56 1821.23 1359.62 1809.3C1346.03 1823.17 1334.11 1833.29 1323.85 1839.67C1313.86 1845.77 1302.77 1848.82 1290.57 1848.82ZM1321.77 1823.03C1327.87 1823.03 1333.69 1821.51 1339.24 1818.46C1345.06 1815.41 1351.58 1810.41 1358.79 1803.48L1359.21 1719.03L1342.57 1725.27C1328.42 1730.54 1317.61 1735.95 1310.12 1741.5C1302.63 1746.77 1297.36 1752.73 1294.31 1759.38C1291.54 1766.04 1290.15 1773.67 1290.15 1782.26C1290.15 1794.19 1293.06 1804.03 1298.89 1811.8C1304.99 1819.29 1312.61 1823.03 1321.77 1823.03Z" fill="#F16400"/>
<path d="M966 1991V1989.37C969.803 1989.37 972.629 1988.61 974.476 1987.09C976.432 1985.46 977.682 1983.39 978.225 1980.89C978.877 1978.39 979.203 1975.68 979.203 1972.74V1883.42C979.203 1879.51 977.953 1876.36 975.454 1873.97C973.063 1871.58 969.912 1870.38 966 1870.38V1868.75H982.626C988.168 1868.75 992.406 1868.15 995.34 1866.96C998.057 1865.76 999.958 1864.29 1001.05 1862.56H1002.68V1924.5C1005.61 1918.74 1009.9 1914.23 1015.55 1910.97C1021.2 1907.6 1027.23 1905.91 1033.65 1905.91C1038.75 1905.91 1043.1 1907.11 1046.69 1909.5C1050.27 1911.78 1052.99 1914.88 1054.83 1918.79C1056.79 1922.7 1057.77 1927.1 1057.77 1931.99V1976.33C1057.77 1980.35 1058.96 1983.56 1061.36 1985.95C1063.85 1988.23 1067.06 1989.37 1070.97 1989.37V1991H1021.26V1989.37C1025.17 1989.37 1028.32 1988.23 1030.71 1985.95C1033.21 1983.56 1034.46 1980.35 1034.46 1976.33V1930.36C1034.46 1927.97 1034.13 1925.42 1033.48 1922.7C1032.83 1919.88 1031.63 1917.49 1029.9 1915.53C1028.27 1913.47 1025.93 1912.43 1022.89 1912.43C1020.06 1912.43 1017.35 1913.3 1014.74 1915.04C1012.24 1916.67 1009.96 1918.74 1007.89 1921.24C1005.83 1923.74 1004.09 1926.23 1002.68 1928.73V1972.74C1002.68 1975.68 1002.95 1978.39 1003.49 1980.89C1004.14 1983.39 1005.39 1985.46 1007.24 1987.09C1009.2 1988.61 1012.07 1989.37 1015.88 1989.37V1991H966Z" fill="#F2B272"/>
<path d="M1108.66 1992.96C1101.16 1992.96 1094.48 1991.11 1088.61 1987.41C1082.85 1983.72 1078.34 1978.61 1075.08 1972.09C1071.82 1965.46 1070.19 1957.91 1070.19 1949.44C1070.19 1940.74 1071.98 1933.14 1075.57 1926.62C1079.16 1920.1 1084.05 1915.04 1090.24 1911.46C1096.54 1907.76 1103.66 1905.91 1111.59 1905.91C1118.22 1905.91 1124.09 1907.22 1129.2 1909.83C1134.41 1912.43 1138.54 1916.13 1141.59 1920.91C1144.74 1925.58 1146.53 1931.02 1146.96 1937.21L1147.13 1939.66H1092.36V1940.47C1092.36 1951.99 1094.91 1961.23 1100.02 1968.18C1105.13 1975.03 1111.97 1978.45 1120.56 1978.45C1125.77 1978.45 1130.72 1977.2 1135.39 1974.7C1140.17 1972.09 1144.03 1968.61 1146.96 1964.27L1148.43 1964.76C1146.58 1970.3 1143.7 1975.19 1139.79 1979.43C1135.88 1983.67 1131.26 1986.98 1125.94 1989.37C1120.61 1991.76 1114.85 1992.96 1108.66 1992.96ZM1092.52 1937.21H1125.61C1125.61 1928.63 1124.2 1921.67 1121.37 1916.35C1118.66 1911.02 1114.8 1908.36 1109.8 1908.36C1105.02 1908.36 1101.05 1910.97 1097.9 1916.18C1094.75 1921.4 1092.96 1928.41 1092.52 1937.21Z" fill="#F2B272"/>
<path d="M1173.65 1993.28C1167.02 1993.28 1161.7 1991.49 1157.68 1987.9C1153.66 1984.32 1151.65 1979.59 1151.65 1973.72C1151.65 1971.22 1152.08 1968.89 1152.95 1966.71C1153.82 1964.43 1155.45 1962.2 1157.84 1960.03C1160.34 1957.86 1163.76 1955.63 1168.11 1953.35C1172.46 1950.96 1178.21 1948.46 1185.39 1945.85L1200.55 1940.31V1928.08C1200.55 1921.89 1199.57 1917 1197.61 1913.41C1195.66 1909.72 1192.94 1907.87 1189.46 1907.87C1185.33 1907.98 1181.8 1910.7 1178.87 1916.02C1176.04 1921.34 1174.14 1928.73 1173.16 1938.19L1155.56 1928.08C1157.4 1923.63 1160.23 1919.71 1164.03 1916.35C1167.84 1912.98 1172.18 1910.37 1177.07 1908.52C1182.07 1906.67 1187.29 1905.75 1192.72 1905.75C1201.96 1905.75 1209.46 1908.36 1215.22 1913.58C1221.08 1918.68 1224.02 1925.69 1224.02 1934.6V1973.89C1224.02 1980.19 1226.14 1983.34 1230.37 1983.34C1232.87 1983.34 1235.32 1981.98 1237.71 1979.26L1239.01 1980.41C1236.19 1984.21 1232.77 1987.31 1228.74 1989.7C1224.72 1992.09 1220.81 1993.28 1217.01 1993.28C1212.88 1993.28 1209.29 1991.87 1206.25 1989.04C1203.32 1986.22 1201.47 1982.47 1200.71 1977.8C1195.38 1983.23 1190.71 1987.2 1186.69 1989.7C1182.78 1992.09 1178.43 1993.28 1173.65 1993.28ZM1185.88 1983.18C1188.27 1983.18 1190.55 1982.58 1192.72 1981.38C1195 1980.19 1197.56 1978.23 1200.38 1975.52L1200.55 1942.43L1194.03 1944.87C1188.48 1946.94 1184.25 1949.05 1181.31 1951.23C1178.38 1953.29 1176.31 1955.63 1175.12 1958.24C1174.03 1960.85 1173.49 1963.83 1173.49 1967.2C1173.49 1971.87 1174.63 1975.73 1176.91 1978.78C1179.3 1981.71 1182.29 1983.18 1185.88 1983.18Z" fill="#F2B272"/>
<path d="M1234.74 1991V1989.37C1238.65 1989.37 1241.8 1988.23 1244.19 1985.95C1246.69 1983.56 1247.94 1980.35 1247.94 1976.33V1883.42C1247.94 1879.51 1246.69 1876.36 1244.19 1873.97C1241.8 1871.58 1238.65 1870.38 1234.74 1870.38V1868.75H1251.37C1256.91 1868.75 1261.15 1868.15 1264.08 1866.96C1266.8 1865.76 1268.7 1864.29 1269.78 1862.56H1271.41V1976.33C1271.41 1980.35 1272.61 1983.56 1275 1985.95C1277.5 1988.23 1280.71 1989.37 1284.62 1989.37V1991H1234.74Z" fill="#F2B272"/>
<path d="M1311.46 1993.28C1305.81 1993.28 1301.19 1991.49 1297.6 1987.9C1294.02 1984.32 1292.23 1979.64 1292.23 1973.89V1911.13H1278.37V1909.01C1285.87 1908.47 1292.55 1906.08 1298.42 1901.84C1304.4 1897.6 1309.29 1891.9 1313.09 1884.72H1315.7V1908.2H1337.38L1335.75 1911.13H1315.7V1970.3C1315.7 1978.99 1318.63 1983.34 1324.5 1983.34C1326.46 1983.34 1328.68 1982.74 1331.18 1981.55C1333.79 1980.35 1336.24 1978.78 1338.52 1976.82V1978.45C1334.93 1983.01 1330.69 1986.65 1325.8 1989.37C1320.91 1991.98 1316.13 1993.28 1311.46 1993.28Z" fill="#F2B272"/>
<path d="M1334.95 1991V1989.37C1338.75 1989.37 1341.58 1988.61 1343.42 1987.09C1345.38 1985.46 1346.63 1983.39 1347.17 1980.89C1347.82 1978.39 1348.15 1975.68 1348.15 1972.74V1883.42C1348.15 1879.51 1346.9 1876.36 1344.4 1873.97C1342.01 1871.58 1338.86 1870.38 1334.95 1870.38V1868.75H1351.57C1357.11 1868.75 1361.35 1868.15 1364.29 1866.96C1367 1865.76 1368.91 1864.29 1369.99 1862.56H1371.62V1924.5C1374.56 1918.74 1378.85 1914.23 1384.5 1910.97C1390.15 1907.6 1396.18 1905.91 1402.59 1905.91C1407.7 1905.91 1412.05 1907.11 1415.63 1909.5C1419.22 1911.78 1421.93 1914.88 1423.78 1918.79C1425.74 1922.7 1426.72 1927.1 1426.72 1931.99V1976.33C1426.72 1980.35 1427.91 1983.56 1430.3 1985.95C1432.8 1988.23 1436.01 1989.37 1439.92 1989.37V1991H1390.2V1989.37C1394.12 1989.37 1397.27 1988.23 1399.66 1985.95C1402.16 1983.56 1403.41 1980.35 1403.41 1976.33V1930.36C1403.41 1927.97 1403.08 1925.42 1402.43 1922.7C1401.78 1919.88 1400.58 1917.49 1398.84 1915.53C1397.21 1913.47 1394.88 1912.43 1391.83 1912.43C1389.01 1912.43 1386.29 1913.3 1383.68 1915.04C1381.18 1916.67 1378.9 1918.74 1376.84 1921.24C1374.77 1923.74 1373.03 1926.23 1371.62 1928.73V1972.74C1371.62 1975.68 1371.89 1978.39 1372.44 1980.89C1373.09 1983.39 1374.34 1985.46 1376.19 1987.09C1378.14 1988.61 1381.02 1989.37 1384.82 1989.37V1991H1334.95Z" fill="#F2B272"/>
<path d="M177.824 1319.83C175.149 1319.83 172.73 1319.3 170.567 1318.23C168.404 1317.17 166.575 1315.66 165.08 1313.69C163.546 1311.72 162.366 1309.36 161.54 1306.61C160.714 1303.86 160.301 1300.77 160.301 1297.35C160.301 1293.85 160.734 1290.66 161.599 1287.79C162.464 1284.88 163.684 1282.4 165.257 1280.35C166.791 1278.27 168.659 1276.68 170.862 1275.58C173.065 1274.47 175.484 1273.92 178.119 1273.92C178.906 1273.92 179.751 1273.96 180.656 1274.04C181.561 1274.08 182.505 1274.18 183.488 1274.34C184.471 1274.49 185.435 1274.61 186.379 1274.69C187.323 1274.73 188.247 1274.75 189.152 1274.75L190.686 1287.08H190.096C189.86 1284.68 189.25 1282.56 188.267 1280.71C187.323 1278.86 186.123 1277.4 184.668 1276.34C183.252 1275.28 181.718 1274.75 180.066 1274.75C178.65 1274.75 177.332 1275.24 176.113 1276.22C174.933 1277.17 173.891 1278.53 172.986 1280.3C171.137 1283.91 170.115 1288.81 169.918 1294.99C170.98 1293.65 172.435 1292.59 174.284 1291.8C176.172 1291.01 178.178 1290.62 180.302 1290.62C182.859 1290.62 185.042 1291.21 186.851 1292.39C188.7 1293.57 190.116 1295.2 191.099 1297.29C192.082 1299.37 192.574 1301.77 192.574 1304.49C192.574 1307.63 191.945 1310.37 190.686 1312.69C189.427 1314.97 187.697 1316.74 185.494 1318C183.291 1319.22 180.735 1319.83 177.824 1319.83ZM177.116 1319C178.453 1319 179.633 1318.39 180.656 1317.17C181.718 1315.95 182.544 1314.36 183.134 1312.39C183.763 1310.39 184.078 1308.24 184.078 1305.96C184.078 1303.52 183.744 1301.36 183.075 1299.47C182.406 1297.54 181.462 1296.03 180.243 1294.93C179.063 1293.79 177.686 1293.22 176.113 1293.22C175.012 1293.22 173.891 1293.49 172.75 1294.04C171.649 1294.55 170.705 1295.26 169.918 1296.17V1297.29C169.879 1297.45 169.859 1297.62 169.859 1297.82C169.859 1297.98 169.859 1298.13 169.859 1298.29V1299.29C169.859 1302.28 170.016 1304.98 170.331 1307.38C170.685 1309.78 171.177 1311.84 171.806 1313.57C172.435 1315.26 173.202 1316.6 174.107 1317.58C175.012 1318.53 176.015 1319 177.116 1319ZM198.291 1319.83C196.914 1319.83 195.734 1319.33 194.751 1318.35C193.767 1317.37 193.276 1316.19 193.276 1314.81C193.276 1313.36 193.787 1312.16 194.81 1311.21C195.832 1310.27 196.993 1309.8 198.291 1309.8C199.589 1309.8 200.749 1310.27 201.772 1311.21C202.794 1312.16 203.306 1313.36 203.306 1314.81C203.306 1316.19 202.814 1317.37 201.831 1318.35C200.847 1319.33 199.667 1319.83 198.291 1319.83Z" fill="#66605C"/>
<rect x="40" y="4" width="75.3594" height="30" rx="3" fill="#444444"/>
<rect x="40.5" y="4.5" width="74.3594" height="29" rx="2.5" stroke="white" stroke-opacity="0.0980392"/>
<path d="M46.9688 22V14H47.9375V21.1406H51.6563V22H46.9688ZM55.4688 22.125C54.9271 22.125 54.4518 21.9961 54.043 21.7383C53.6367 21.4805 53.319 21.1198 53.0898 20.6562C52.8633 20.1927 52.75 19.651 52.75 19.0312C52.75 18.4062 52.8633 17.8607 53.0898 17.3945C53.319 16.9284 53.6367 16.5664 54.043 16.3086C54.4518 16.0508 54.9271 15.9219 55.4688 15.9219C56.0104 15.9219 56.4844 16.0508 56.8906 16.3086C57.2995 16.5664 57.6172 16.9284 57.8438 17.3945C58.0729 17.8607 58.1875 18.4062 58.1875 19.0312C58.1875 19.651 58.0729 20.1927 57.8438 20.6562C57.6172 21.1198 57.2995 21.4805 56.8906 21.7383C56.4844 21.9961 56.0104 22.125 55.4688 22.125ZM55.4688 21.2969C55.8802 21.2969 56.2187 21.1914 56.4844 20.9805C56.75 20.7695 56.9466 20.4922 57.0742 20.1484C57.2018 19.8047 57.2656 19.4323 57.2656 19.0312C57.2656 18.6302 57.2018 18.2565 57.0742 17.9102C56.9466 17.5638 56.75 17.2839 56.4844 17.0703C56.2187 16.8568 55.8802 16.75 55.4688 16.75C55.0573 16.75 54.7188 16.8568 54.4531 17.0703C54.1875 17.2839 53.9909 17.5638 53.8633 17.9102C53.7357 18.2565 53.6719 18.6302 53.6719 19.0312C53.6719 19.4323 53.7357 19.8047 53.8633 20.1484C53.9909 20.4922 54.1875 20.7695 54.4531 20.9805C54.7188 21.1914 55.0573 21.2969 55.4688 21.2969ZM62.0166 24.375C61.5713 24.375 61.1885 24.3177 60.8682 24.2031C60.5479 24.0911 60.2809 23.9427 60.0674 23.7578C59.8564 23.5755 59.6885 23.3802 59.5635 23.1719L60.2979 22.6563C60.3812 22.7656 60.4867 22.8906 60.6143 23.0312C60.7419 23.1745 60.9163 23.2982 61.1377 23.4023C61.3617 23.5091 61.6546 23.5625 62.0166 23.5625C62.501 23.5625 62.9007 23.4453 63.2158 23.2109C63.5309 22.9766 63.6885 22.6094 63.6885 22.1094V20.8906H63.6104C63.5426 21 63.4463 21.1354 63.3213 21.2969C63.1989 21.4557 63.0218 21.5977 62.79 21.7227C62.5609 21.8451 62.251 21.9062 61.8604 21.9062C61.376 21.9062 60.9411 21.7917 60.5557 21.5625C60.1729 21.3333 59.8695 21 59.6455 20.5625C59.4242 20.125 59.3135 19.5937 59.3135 18.9687C59.3135 18.3542 59.4215 17.819 59.6377 17.3633C59.8538 16.9049 60.1546 16.5508 60.54 16.3008C60.9255 16.0482 61.3708 15.9219 61.876 15.9219C62.2666 15.9219 62.5765 15.987 62.8057 16.1172C63.0374 16.2448 63.2145 16.3906 63.3369 16.5547C63.4619 16.7161 63.5583 16.849 63.626 16.9531H63.7197V16H64.6104V22.1719C64.6104 22.6875 64.4932 23.1068 64.2588 23.4297C64.027 23.7552 63.7145 23.9935 63.3213 24.1445C62.9307 24.2982 62.4958 24.375 62.0166 24.375ZM61.9854 21.0781C62.3551 21.0781 62.6676 20.9935 62.9229 20.8242C63.1781 20.6549 63.3721 20.4115 63.5049 20.0938C63.6377 19.776 63.7041 19.3958 63.7041 18.9531C63.7041 18.5208 63.639 18.1393 63.5088 17.8086C63.3786 17.4779 63.1859 17.2187 62.9307 17.0312C62.6755 16.8437 62.3604 16.75 61.9854 16.75C61.5947 16.75 61.2692 16.849 61.0088 17.0469C60.751 17.2448 60.557 17.5104 60.4268 17.8438C60.2992 18.1771 60.2354 18.5469 60.2354 18.9531C60.2354 19.3698 60.3005 19.7383 60.4307 20.0586C60.5635 20.3763 60.7588 20.6263 61.0166 20.8086C61.277 20.9883 61.5999 21.0781 61.9854 21.0781ZM68.7354 22.125C68.1937 22.125 67.7184 21.9961 67.3096 21.7383C66.9033 21.4805 66.5856 21.1198 66.3564 20.6562C66.1299 20.1927 66.0166 19.651 66.0166 19.0312C66.0166 18.4062 66.1299 17.8607 66.3564 17.3945C66.5856 16.9284 66.9033 16.5664 67.3096 16.3086C67.7184 16.0508 68.1937 15.9219 68.7354 15.9219C69.277 15.9219 69.751 16.0508 70.1572 16.3086C70.5661 16.5664 70.8838 16.9284 71.1104 17.3945C71.3395 17.8607 71.4541 18.4062 71.4541 19.0312C71.4541 19.651 71.3395 20.1927 71.1104 20.6562C70.8838 21.1198 70.5661 21.4805 70.1572 21.7383C69.751 21.9961 69.277 22.125 68.7354 22.125ZM68.7354 21.2969C69.1468 21.2969 69.4854 21.1914 69.751 20.9805C70.0166 20.7695 70.2132 20.4922 70.3408 20.1484C70.4684 19.8047 70.5322 19.4323 70.5322 19.0312C70.5322 18.6302 70.4684 18.2565 70.3408 17.9102C70.2132 17.5638 70.0166 17.2839 69.751 17.0703C69.4854 16.8568 69.1468 16.75 68.7354 16.75C68.3239 16.75 67.9854 16.8568 67.7197 17.0703C67.4541 17.2839 67.2575 17.5638 67.1299 17.9102C67.0023 18.2565 66.9385 18.6302 66.9385 19.0312C66.9385 19.4323 67.0023 19.8047 67.1299 20.1484C67.2575 20.4922 67.4541 20.7695 67.7197 20.9805C67.9854 21.1914 68.3239 21.2969 68.7354 21.2969ZM76.0801 22V14H80.9082V14.8594H77.0488V17.5625H80.6582V18.4219H77.0488V21.1406H80.9707V22H76.0801ZM83.2168 16L84.6543 18.4531L86.0918 16H87.1543L85.2168 19L87.1543 22H86.0918L84.6543 19.6719L83.2168 22H82.1543L84.0605 19L82.1543 16H83.2168ZM88.4697 24.25V16H89.3604V16.9531H89.4697C89.5374 16.849 89.6312 16.7161 89.751 16.5547C89.8734 16.3906 90.0479 16.2448 90.2744 16.1172C90.5036 15.987 90.8135 15.9219 91.2041 15.9219C91.7093 15.9219 92.1546 16.0482 92.54 16.3008C92.9255 16.5534 93.2262 16.9115 93.4424 17.375C93.6585 17.8385 93.7666 18.3854 93.7666 19.0156C93.7666 19.651 93.6585 20.2018 93.4424 20.668C93.2262 21.1315 92.9268 21.4909 92.5439 21.7461C92.1611 21.9987 91.7197 22.125 91.2197 22.125C90.8343 22.125 90.5257 22.0612 90.2939 21.9336C90.0622 21.8034 89.8838 21.6562 89.7588 21.4922C89.6338 21.3255 89.5374 21.1875 89.4697 21.0781H89.3916V24.25H88.4697ZM89.376 19C89.376 19.4531 89.4424 19.8529 89.5752 20.1992C89.708 20.543 89.902 20.8125 90.1572 21.0078C90.4124 21.2005 90.7249 21.2969 91.0947 21.2969C91.4801 21.2969 91.8018 21.1953 92.0596 20.9922C92.32 20.7865 92.5153 20.5104 92.6455 20.1641C92.7783 19.8151 92.8447 19.4271 92.8447 19C92.8447 18.5781 92.7796 18.1979 92.6494 17.8594C92.5218 17.5182 92.3278 17.2487 92.0674 17.0508C91.8096 16.8503 91.4854 16.75 91.0947 16.75C90.7197 16.75 90.4046 16.8451 90.1494 17.0352C89.8942 17.2227 89.7015 17.4857 89.5713 17.8242C89.4411 18.1602 89.376 18.5521 89.376 19ZM97.6104 22.125C97.0687 22.125 96.5934 21.9961 96.1846 21.7383C95.7783 21.4805 95.4606 21.1198 95.2314 20.6562C95.0049 20.1927 94.8916 19.651 94.8916 19.0312C94.8916 18.4062 95.0049 17.8607 95.2314 17.3945C95.4606 16.9284 95.7783 16.5664 96.1846 16.3086C96.5934 16.0508 97.0687 15.9219 97.6104 15.9219C98.152 15.9219 98.626 16.0508 99.0322 16.3086C99.4411 16.5664 99.7588 16.9284 99.9854 17.3945C100.215 17.8607 100.329 18.4062 100.329 19.0312C100.329 19.651 100.215 20.1927 99.9854 20.6562C99.7588 21.1198 99.4411 21.4805 99.0322 21.7383C98.626 21.9961 98.152 22.125 97.6104 22.125ZM97.6104 21.2969C98.0218 21.2969 98.3604 21.1914 98.626 20.9805C98.8916 20.7695 99.0882 20.4922 99.2158 20.1484C99.3434 19.8047 99.4072 19.4323 99.4072 19.0312C99.4072 18.6302 99.3434 18.2565 99.2158 17.9102C99.0882 17.5638 98.8916 17.2839 98.626 17.0703C98.3604 16.8568 98.0218 16.75 97.6104 16.75C97.1989 16.75 96.8604 16.8568 96.5947 17.0703C96.3291 17.2839 96.1325 17.5638 96.0049 17.9102C95.8773 18.2565 95.8135 18.6302 95.8135 19.0312C95.8135 19.4323 95.8773 19.8047 96.0049 20.1484C96.1325 20.4922 96.3291 20.7695 96.5947 20.9805C96.8604 21.1914 97.1989 21.2969 97.6104 21.2969ZM101.736 22V16H102.627V16.9062H102.689C102.799 16.6094 102.997 16.3685 103.283 16.1836C103.57 15.9987 103.893 15.9062 104.252 15.9062C104.32 15.9062 104.404 15.9076 104.506 15.9102C104.607 15.9128 104.684 15.9167 104.736 15.9219V16.8594C104.705 16.8516 104.633 16.8398 104.521 16.8242C104.412 16.806 104.296 16.7969 104.174 16.7969C103.882 16.7969 103.622 16.8581 103.393 16.9805C103.166 17.1003 102.986 17.2669 102.854 17.4805C102.723 17.6914 102.658 17.9323 102.658 18.2031V22H101.736ZM108.814 16V16.7812H105.705V16H108.814ZM106.611 14.5625H107.533V20.2812C107.533 20.5417 107.571 20.737 107.646 20.8672C107.725 20.9948 107.824 21.0807 107.943 21.125C108.066 21.1667 108.195 21.1875 108.33 21.1875C108.432 21.1875 108.515 21.1823 108.58 21.1719C108.645 21.1589 108.697 21.1484 108.736 21.1406L108.924 21.9687C108.861 21.9922 108.774 22.0156 108.662 22.0391C108.55 22.0651 108.408 22.0781 108.236 22.0781C107.976 22.0781 107.721 22.0221 107.471 21.9102C107.223 21.7982 107.018 21.6276 106.854 21.3984C106.692 21.1693 106.611 20.8802 106.611 20.5312V14.5625Z" fill="white"/>
</svg>
